<svg width="8" height="11" viewBox="0 0 8 11" fill="none" xmlns="http://www.w3.org/2000/svg">
<g clip-path="url(#clip0_1083_6)">
<path d="M1.50215 10.4959C1.6347 10.4959 1.76863 10.4521 1.88046 10.3646L7.73197 5.70389C7.87419 5.59042 7.95703 5.41952 7.95703 5.23768C7.95703 5.05721 7.87419 4.88495 7.73197 4.77284L1.90532 0.136706C1.64574 -0.0697387 1.26604 -0.0287231 1.05755 0.228308C0.849061 0.485339 0.890491 0.861316 1.15006 1.06776L6.39129 5.23768L1.12383 9.43358C0.864251 9.64003 0.822831 10.016 1.03132 10.273C1.15144 10.4193 1.32541 10.4959 1.50215 10.4959Z" fill="black" fill-opacity="0.35"/>
</g>
<defs>
<clipPath id="clip0_1083_6">
<rect width="8" height="11" fill="white" transform="matrix(-1 0 0 1 8 0)"/>
</clipPath>
</defs>
</svg>
